<?xml version="1.0" encoding="utf-8"?>
<!-- Generator: Adobe Illustrator 27.2.0, SVG Export Plug-In . SVG Version: 6.00 Build 0)  -->
<svg version="1.1" id="Layer_1" xmlns="http://www.w3.org/2000/svg" xmlns:xlink="http://www.w3.org/1999/xlink" x="0px" y="0px"
	 viewBox="0 0 40 40" style="enable-background:new 0 0 40 40;" xml:space="preserve">
<style type="text/css">
	.st0{fill:#228BE6;}
</style>
<g>
	<g>
		<path class="st0" d="M22.58,5.8l5.94,3.4l0,0l5.91,3.43l0.59,0.33v0.68v6.83v6.86v0.65l-0.59,0.35l-5.91,3.4l0,0l-5.94,3.43
			l-0.56,0.33l0,0l-3.84,2.22c-0.77,0.44-1.71,0.18-2.13-0.56c-0.41-0.74-0.18-1.68,0.56-2.1l2.16-1.27l0.15-0.06l0.21-0.12
			c0.74-0.44,1-1.39,0.56-2.13c-0.41-0.74-1.36-1-2.1-0.56l-6.79,3.9c-0.74,0.41-1.68,0.18-2.1-0.56c-0.44-0.74-0.18-1.68,0.56-2.13
			l1.65-0.95l1.8-1.03l0.71-0.41c0.74-0.41,1-1.39,0.56-2.13c-0.41-0.74-1.36-0.98-2.1-0.56l-1.62,0.92l-0.65,0.38l-0.62,0.35
			c-0.74,0.44-1.68,0.18-2.1-0.56c-0.44-0.74-0.18-1.68,0.56-2.13l1.57-0.89l0,0l1.48-0.86c0.77-0.44,1-1.39,0.59-2.13
			c-0.41-0.74-1.33-0.98-2.07-0.59l-3.51,2.04c-0.77,0.41-1.71,0.15-2.13-0.59c-0.41-0.74-0.18-1.68,0.56-2.1L8.87,18
			c0.06-0.03,0.09-0.03,0.15-0.06v-4.31v-0.68l0.56-0.33l5.94-3.43l0,0l5.91-3.4l0.59-0.35L22.58,5.8z M2.37,32.48
			c-0.74,0.44-1.68,0.18-2.1-0.56c-0.44-0.74-0.18-1.68,0.56-2.13l2.98-1.71c0.74-0.41,1.68-0.18,2.13,0.56
			c0.41,0.77,0.18,1.71-0.59,2.13L2.37,32.48z M23.17,21.14v10.99l4.16-2.42l0,0l5.35-3.07v-6.18v-4.82L23.17,21.14z M12.51,13.63
			l9.51,5.5l9.48-5.5l-4.16-2.39v-0.03l-5.32-3.07l-5.35,3.07v0.03L12.51,13.63z"/>
		<g>
			<path class="st0" d="M22.42,0.13L4.91,10.25l2.43,1.41l15.08-8.71l15.08,8.71v17.41l-13.84,7.99v2.81l16.28-9.4V10.25L22.42,0.13
				z"/>
		</g>
		<line class="st0" x1="7.34" y1="11.65" x2="4.91" y2="10.25"/>
	</g>
</g>
</svg>